<svg width="121" height="121" viewBox="0 0 121 121" fill="none" xmlns="http://www.w3.org/2000/svg">
<g clip-path="url(#clip0_34_422)">
<path d="M34.9168 14.6861V0.957275H43.4444V6.73783H56.236V0.957275H64.7638V6.73783H77.5554V0.957275H86.083V14.6861H34.9168Z" fill="#3A82F7"/>
<path fill-rule="evenodd" clip-rule="evenodd" d="M11.0121 22.3133C11.0121 22.3133 10.7597 34.3634 11.0121 50.1004C11.0343 51.4831 11.0514 52.8885 11.0687 54.3117C11.4285 83.839 11.8807 120.957 59.4868 120.957C109.387 120.957 110.1 95.2542 110.1 46.6271V22.3133H11.0121ZM103.712 28.6891H17.3175C17.3131 29.2131 17.309 29.766 17.3054 30.3458C17.274 35.2898 17.2741 42.1878 17.3993 49.9983C17.421 51.3515 17.4388 52.7089 17.4567 54.0678C17.6448 68.4015 17.835 82.8966 22.6151 94.3564C25.1207 100.363 28.8065 105.254 34.3273 108.717C39.8986 112.211 47.8701 114.582 59.4868 114.582C71.4997 114.582 79.8947 113.021 85.8337 110.364C91.5698 107.797 95.2638 104.103 97.8201 99.1212C100.484 93.9303 102.03 87.1 102.847 78.1757C103.662 69.2696 103.712 58.845 103.712 46.6271V28.6891Z" fill="url(#paint0_linear_34_422)"/>
<path d="M42.7483 70.6181H27.0852C27.0852 70.6181 27.1831 80.7577 30.2178 88.4148C33.2526 96.0718 42.7483 103.16 42.7483 103.16V70.6181Z" fill="#F2CB80"/>
<path d="M70.4198 56.8897H50.5798V105.195H70.4198V56.8897Z" fill="url(#paint1_radial_34_422)"/>
<path d="M94.4367 43.6695H78.2515V103.161C78.2515 103.161 94.4367 99.3227 94.4367 79.1724V43.6695Z" fill="#D8AE5E"/>
</g>
<defs>
<linearGradient id="paint0_linear_34_422" x1="110.1" y1="-1.3956" x2="-5.66004" y2="95.2371" gradientUnits="userSpaceOnUse">
<stop stop-color="#DEB25F"/>
<stop offset="1" stop-color="#F3CC81"/>
</linearGradient>
<radialGradient id="paint1_radial_34_422" cx="0" cy="0" r="1" gradientUnits="userSpaceOnUse" gradientTransform="translate(110.101 0.957271) rotate(129.579) scale(155.694 88.6907)">
<stop stop-color="#D8AE5E"/>
<stop offset="1" stop-color="#F4CD83"/>
</radialGradient>
<clipPath id="clip0_34_422">
<rect width="120" height="120" fill="white" transform="translate(0.5 0.957275)"/>
</clipPath>
</defs>
</svg>
